<svg id="Camada_1" data-name="Camada 1" xmlns="http://www.w3.org/2000/svg" xmlns:xlink="http://www.w3.org/1999/xlink" viewBox="0 0 383.41 330.98"><defs><style>.cls-1{fill:#f7931e;}.cls-2{fill:#42210b;}.cls-3{fill:#006837;}.cls-4{fill:red;}.cls-5{fill:#fcee21;}.cls-6{fill:#8c6239;}.cls-7{fill:url(#Gradiente_sem_nome_36);}</style><linearGradient id="Gradiente_sem_nome_36" x1="86.06" y1="72.2" x2="238.3" y2="334.68" gradientUnits="userSpaceOnUse"><stop offset="0" stop-opacity="0.1"/><stop offset="1" stop-opacity="0.1"/></linearGradient></defs><title>Prancheta 21</title><path class="cls-1" d="M330.44,124.13a144.05,144.05,0,0,0-274.74,0Z"/><path class="cls-1" d="M50.05,241.09c4.54,70.34,67.15,61.45,143.73,61.45S333,311.43,337.5,241.09Z"/><rect class="cls-2" x="32" y="208.42" width="321.18" height="32.67" rx="14.39"/><rect class="cls-2" x="32" y="148.11" width="321.18" height="32.67" rx="14.39"/><rect class="cls-3" x="25.48" y="195.28" width="335.18" height="13.14"/><rect class="cls-4" x="35.51" y="180.79" width="314.35" height="14.49"/><rect class="cls-5" x="32.67" y="137.52" width="314.35" height="10.59"/><path class="cls-5" d="M268.44,148.23c4.15,10.31-45-5.41-53.92,35.42-2.67,12.27-46.82-25.31-46.82-37.79s18.67-7.43,46.82-7.43S263.78,136.64,268.44,148.23Z"/><rect class="cls-4" x="32.67" y="124.13" width="314.35" height="14.49"/><circle class="cls-6" cx="97.87" cy="74.48" r="3.64"/><ellipse class="cls-6" cx="107.56" cy="52.07" rx="8" ry="5.33"/><ellipse class="cls-6" cx="131.96" cy="70.83" rx="8.79" ry="5.33"/><circle class="cls-6" cx="76.16" cy="90.45" r="5.33"/><circle class="cls-6" cx="108.53" cy="101.2" r="7.02"/><circle class="cls-6" cx="140.75" cy="39.21" r="5.33"/><circle class="cls-6" cx="158.26" cy="28.77" r="5.33"/><circle class="cls-6" cx="140.75" cy="90.45" r="5.33"/><ellipse class="cls-6" cx="163.59" cy="63.82" rx="5.33" ry="7.01"/><circle class="cls-6" cx="192.68" cy="40.31" r="6.43"/><circle class="cls-6" cx="189.85" cy="92.08" r="4.55"/><ellipse class="cls-6" cx="207.66" cy="67.37" rx="4.55" ry="6.42"/><circle class="cls-6" cx="212.21" cy="27.99" r="4.55"/><circle class="cls-6" cx="239.83" cy="38.74" r="6.43"/><ellipse class="cls-6" cx="239.83" cy="76.17" rx="6.42" ry="4.55" transform="translate(0.07 152.55) rotate(-35.29)"/><circle class="cls-6" cx="261.17" cy="47.56" r="4.55"/><path class="cls-7" d="M167.7,148.11A221.8,221.8,0,0,1,205,24.26c-4.14-.35-8.32-.54-12.54-.54a145,145,0,0,0-30,3.12,5.33,5.33,0,0,0-10.18,2.21c0,.11,0,.22,0,.33A143.28,143.28,0,0,0,112,48.25,10.63,10.63,0,0,0,106.92,47c-4.42,0-8,2.39-8,5.33a4.7,4.7,0,0,0,2.44,3.83A144.82,144.82,0,0,0,74.15,85.6a5.31,5.31,0,0,0-4,5.13,4.53,4.53,0,0,0,.08.74,143.2,143.2,0,0,0-15.2,32.94H32v24H45.76a14.4,14.4,0,0,0-14.39,14.4v3.89a14.39,14.39,0,0,0,14.39,14.39H34.88v14.49h-10V208.7H45.76a14.39,14.39,0,0,0-14.39,14.39V227a14.39,14.39,0,0,0,14.39,14.39h3.66c4.54,70.34,67.15,61.45,143.72,61.45,12.91,0,25.42.25,37.32.33C191.79,264.06,167.7,209.05,167.7,148.11Z"/></svg>